<?xml version="1.0" encoding="iso-8859-1"?>
<!-- Generator: Adobe Illustrator 19.0.0, SVG Export Plug-In . SVG Version: 6.00 Build 0)  -->
<!DOCTYPE svg  PUBLIC '-//W3C//DTD SVG 1.1//EN'  'http://www.w3.org/Graphics/SVG/1.1/DTD/svg11.dtd' [
	<!ENTITY stroke_color "#010101">
	<!ENTITY fill_color "#FFFFFF">
]>
<svg version="1.1" id="Layer_1" xmlns="http://www.w3.org/2000/svg" xmlns:xlink="http://www.w3.org/1999/xlink" x="0px" y="0px"
	 viewBox="0 0 511.997 511.997" style="enable-background:new 0 0 511.997 511.997;" xml:space="preserve">
<path style="fill:&fill_color;" d="M331.978,97.327l-25.312-46.656l-28.656-25.343c0,0-14,53.343-16,55.999s-12,0-12,0l-51.343,18.672
	l-20.656,17.328l-80,170.67l30.656,21.328l52.671,37.343l57.328,54l54.672,92.656l29-42.656l9.641-68l-15.312-48.671l-17.328-38.672
	l-4.672-48.655l9.344-9.344l52.654,2.672l16,38l31.343-9.328h19.328l12.672-7.344l10-27.328v-28.672L331.978,97.327z"/>
<g>
	<polygon style="fill:&stroke_color;" points="322.665,88.671 353.992,112.327 388.992,40.999 	"/>
	<polygon style="fill:&stroke_color;" points="133.979,133.671 102.323,180.67 64.324,287.013 100.651,289.341 181.65,108.327 	"/>
</g>
<path d="M321.322,127.999c-5.906,0-10.672,4.766-10.672,10.656s4.766,10.672,10.672,10.672c5.891,0,10.656-4.781,10.656-10.672
	S327.212,127.999,321.322,127.999z"/>
<path d="M458.383,214.014c-0.891-5.672-4.5-14.844-24.734-35.734c-11.078-11.438-26.172-25.405-44.843-41.53
	c-8.359-7.203-16.719-14.219-24.5-20.656l61.968-99.655c0.016-0.016,0.031-0.031,0.047-0.062l0.047-0.094
	c0.047-0.062,0.078-0.125,0.125-0.188c0.125-0.234,0.266-0.469,0.375-0.688c0.062-0.125,0.109-0.25,0.172-0.375
	c0.078-0.188,0.156-0.375,0.234-0.562c0.062-0.188,0.125-0.344,0.172-0.516c0.047-0.156,0.109-0.297,0.156-0.453
	c0.047-0.203,0.094-0.406,0.125-0.594c0.031-0.141,0.062-0.281,0.094-0.406c0.031-0.219,0.062-0.406,0.078-0.625
	c0.016-0.125,0.031-0.266,0.047-0.406c0.016-0.188,0.016-0.391,0.031-0.594c0-0.141,0-0.297,0-0.438
	c0-0.188-0.016-0.359-0.031-0.531s-0.031-0.344-0.047-0.531c-0.016-0.141-0.047-0.281-0.062-0.438
	c-0.031-0.188-0.078-0.391-0.109-0.594c-0.031-0.125-0.062-0.25-0.109-0.375c-0.047-0.219-0.094-0.406-0.172-0.625
	c-0.031-0.125-0.078-0.25-0.125-0.375c-0.078-0.188-0.156-0.375-0.234-0.562c-0.062-0.156-0.141-0.297-0.203-0.438
	c-0.078-0.156-0.156-0.312-0.25-0.484s-0.203-0.359-0.312-0.531c-0.078-0.109-0.141-0.234-0.219-0.328
	c-0.156-0.219-0.312-0.438-0.484-0.641c-0.047-0.062-0.078-0.125-0.125-0.172c-0.016-0.031-0.031-0.031-0.031-0.031
	c-0.172-0.219-0.359-0.406-0.547-0.594c-0.062-0.062-0.125-0.141-0.203-0.219c-0.141-0.125-0.281-0.25-0.422-0.375
	c-0.141-0.109-0.266-0.234-0.406-0.344c-0.094-0.062-0.188-0.125-0.266-0.188c-0.203-0.156-0.422-0.312-0.641-0.438
	c0,0-0.016-0.016-0.031-0.031c-0.062-0.031-0.141-0.062-0.203-0.109c-0.234-0.141-0.453-0.266-0.688-0.375
	c-0.125-0.062-0.25-0.109-0.359-0.172c-0.203-0.094-0.391-0.172-0.578-0.25c-0.172-0.062-0.344-0.109-0.516-0.156
	c-0.141-0.062-0.297-0.109-0.453-0.156c-0.203-0.047-0.391-0.094-0.594-0.125c-0.141-0.031-0.266-0.062-0.406-0.094
	c-0.203-0.031-0.406-0.062-0.609-0.094c-0.141,0-0.281-0.031-0.406-0.031C417.932,0.015,417.744,0,417.541,0
	c-0.156,0-0.297,0-0.453,0c-0.172,0-0.344,0.016-0.516,0.031c-0.188,0-0.359,0.031-0.531,0.031
	c-0.156,0.031-0.297,0.062-0.453,0.078c-0.188,0.031-0.391,0.062-0.578,0.109c-0.125,0.031-0.266,0.062-0.391,0.094
	c-0.203,0.062-0.406,0.109-0.609,0.188c-0.125,0.031-0.25,0.078-0.375,0.125c-0.203,0.062-0.391,0.141-0.578,0.219
	c-0.141,0.062-0.281,0.141-0.438,0.219s-0.312,0.156-0.469,0.25c-0.188,0.094-0.359,0.203-0.531,0.312
	c-0.125,0.062-0.234,0.141-0.344,0.219c-0.219,0.156-0.422,0.312-0.625,0.469c-0.062,0.062-0.125,0.094-0.188,0.141l-0.078,0.078
	c-0.031,0-0.047,0.031-0.047,0.031l-84.232,70.655c-4.594-19.469-12.266-35.375-22.938-47.421
	c-10.986-12.391-21.299-16.047-22.44-16.422c-2.906-0.969-6.094-0.625-8.734,0.922s-4.484,4.156-5.078,7.172l-9.922,50.937
	c-5.188,0.625-12.297,1.875-20.625,4.406c-8.016,0.25-38.828,2.75-74.078,26.375c-23.187,15.531-43.656,37.094-60.843,64.077
	c-21.156,33.219-37.359,74.828-48.203,123.687c-0.703,3.203,0.094,6.547,2.172,9.078s5.188,3.969,8.484,3.906
	c4.953-0.125,20.016,0.422,30.093,4.219c0.141,0.047,0.297,0.094,0.438,0.125c0.078,0.031,0.172,0.078,0.25,0.094
	c0.344,0.109,34.109,10.531,74.093,40.39c23.375,17.469,44.312,38.109,62.203,61.328c22.344,29.016,40.016,62.219,52.5,98.656
	c1.297,3.781,4.578,6.5,8.516,7.094c0.531,0.094,1.062,0.125,1.578,0.125c3.391,0,6.609-1.625,8.641-4.406
	c1.656-2.281,40.437-56.406,40.437-112.938c0-49.062-31.905-101.312-41.421-115.811l6.734-34.578
	c15.312,4.109,30.219,4.812,39.577,4.734c0.812,3.594,1.906,7.875,3.297,12.25c5.516,17.531,12.797,27.405,22.266,30.14
	c2.656,0.766,5.344,1.109,8.031,1.109c15.172,0,29.937-10.625,33.187-13.125c8.25,6.031,14.344,3.719,17.281,1.781
	c4.984-3.327,12.547-13.374,17.969-23.89C455.008,246.686,460.961,230.607,458.383,214.014z M335.759,92.999l37.202-31.219
	l-25.328,40.719C343.117,98.874,339.103,95.655,335.759,92.999z M118.823,175.748c13.188-20.937,28.422-38.218,45.39-51.562
	c-31.531,43.483-63.046,128.343-73.233,157.029c-4.875-1.031-9.734-1.656-13.984-2.03
	C87.058,238.607,101.104,203.857,118.823,175.748z M423.492,259.014c-3.109-3.234-7.188-8.141-10.547-12.812
	c-2.953-4.109-8.359-5.578-12.983-3.531c-4.609,2.047-7.172,7.047-6.109,11.984l2.391,11.203
	c-5.688,3.344-12.766,6.188-17.016,5.094c-1.188-0.781-4.75-5.172-8.406-17.281c-2.703-8.922-4.031-17.281-4.047-17.359
	c-0.859-5.562-5.922-9.5-11.547-8.969c-0.156,0-15.702,1.438-33.546-1.859c-22.391-4.141-37.234-13.391-44.109-27.5
	c-2.578-5.297-8.969-7.484-14.266-4.922c-5.297,2.594-7.5,8.969-4.922,14.281c6.688,13.688,17.391,22.969,29.344,29.188
	l-8.281,42.578c-0.547,2.843,0.078,5.796,1.75,8.171c0.391,0.562,40.125,57.749,40.125,107.374c0,31.562-14.656,63.5-25.359,82.641
	c-12.562-30.859-28.828-59.266-48.484-84.703c-19.188-24.812-41.64-46.844-66.734-65.468
	c-29.515-21.938-55.578-33.906-69.421-39.375c4.609-12.937,13.484-37.046,24.5-63.14c21.14-50.078,40.375-84.624,55.64-99.89
	c23.984-23.969,49.078-31.766,63.046-34.297l-0.984,16.953c-0.344,5.875,4.141,10.922,10.016,11.266
	c0.219,0.016,0.422,0.016,0.641,0.016c5.609,0,10.297-4.375,10.641-10.031l1.688-28.75l8.266-42.469
	c1.109,1.109,2.281,2.375,3.453,3.781c7.156,8.547,16.438,24.75,20.031,53.406c0,0.094,0.031,0.188,0.047,0.297
	c0.031,0.219,0.062,0.438,0.109,0.641c0.031,0.125,0.062,0.25,0.094,0.375c0.062,0.219,0.109,0.438,0.188,0.656
	c0.031,0.109,0.078,0.219,0.125,0.344c0.078,0.203,0.156,0.406,0.25,0.625c0.047,0.125,0.109,0.25,0.172,0.359
	c0.078,0.188,0.172,0.391,0.281,0.578c0.078,0.125,0.172,0.25,0.25,0.406c0.094,0.156,0.188,0.312,0.297,0.469
	s0.234,0.312,0.359,0.469c0.078,0.094,0.141,0.203,0.234,0.312c0.016,0.016,0.031,0.031,0.062,0.062
	c0.203,0.25,0.438,0.484,0.672,0.719c0.062,0.062,0.109,0.109,0.172,0.156c0.234,0.219,0.484,0.438,0.734,0.641
	c0.016,0,0.031,0.016,0.078,0.047c0.016,0.016,0.031,0.031,0.047,0.031c2.078,1.625,31.843,24.781,61.874,50.656
	c58.655,50.53,62.733,63.577,62.999,64.874C439.68,232.592,429.883,250.436,423.492,259.014z"/>
<g>
</g>
<g>
</g>
<g>
</g>
<g>
</g>
<g>
</g>
<g>
</g>
<g>
</g>
<g>
</g>
<g>
</g>
<g>
</g>
<g>
</g>
<g>
</g>
<g>
</g>
<g>
</g>
<g>
</g>
</svg>
